Coordinates
nRows=9
nColumns=38

# SIMM Motion File Header:
name Coordinates
datacolumns 38
datarows 9
otherdata 1
range 0.72999999999999998000 0.73799999999999999000
endheader
time	pelvis_tx	pelvis_ty	pelvis_tz	pelvis_tilt	pelvis_list	pelvis_rotation	hip_flexion_r	hip_adduction_r	hip_rotation_r	knee_angle_r	ankle_angle_r	subtalar_angle_r	mtp_angle_r	hip_flexion_l	hip_adduction_l	hip_rotation_l	knee_angle_l	ankle_angle_l	subtalar_angle_l	mtp_angle_l	lumbar_extension	lumbar_bending	lumbar_rotation	arm_flex_r	arm_add_r	arm_rot_r	elbow_flex_r	pro_sup_r	wrist_flex_r	wrist_dev_r	arm_flex_l	arm_add_l	arm_rot_l	elbow_flex_l	pro_sup_l	wrist_flex_l	wrist_dev_l
      0.72999999999999998000	      0.83815788473643871000	      0.99178961124276888000	     -0.18493343951512164000	      3.84889314066551070000	     -0.19615210569026836000	      1.56499785318564700000	    -30.57647980523778500000	      2.54312748045025880000	     -1.68295272961093190000	    -37.81944125793394600000	    -22.75273362450761600000	     -0.00000000000000000393	      0.00000000000000015664	     26.73666125123819300000	      3.26136270437455610000	     -3.85091640953543730000	    -16.07864623195654400000	      2.32636233354902040000	      0.00000000000000038800	     -0.00000000000000051017	     -9.81039393462938850000	      1.29511921521591900000	     14.23699313141556800000	    -12.19995620356177400000	    -36.22992360244092000000	     -1.64903456205669660000	    104.88997287364641000000	    120.13396812246698000000	     -0.00000000000000075644	     -0.00000000000000066701	    -35.34188161439173100000	    -32.05228494501367500000	      9.27700287392189790000	     77.34827750938451600000	    107.63777382171480000000	      0.00000000000000010875	     -0.00000000000000024420
      0.73099999999999998000	      0.83823528180095030000	      0.99151341656064829000	     -0.18498603394927063000	      3.87133379892039910000	     -0.20332993571301314000	      1.56066926756828870000	    -30.42108456990134600000	      2.51493324478687220000	     -1.74368762173426030000	    -38.40445784589692100000	    -22.71661096326070300000	      0.00000000000000000491	      0.00000000000000014048	     26.73179250515405800000	      3.26439756071376270000	     -3.77545597308841520000	    -16.06318586920198800000	      2.29683408871466990000	      0.00000000000000040258	     -0.00000000000000051439	     -9.84035683372274230000	      1.28898656780535870000	     14.24732082254293400000	    -12.19854104150457600000	    -36.17901583386775100000	     -1.57274066947995820000	    104.66996290226878000000	    120.12278287532784000000	     -0.00000000000000078956	     -0.00000000000000071585	    -35.26449630926761400000	    -32.10490530552620900000	      9.23969447553808720000	     77.42975061582284000000	    107.70432253179206000000	      0.00000000000000011135	     -0.00000000000000026195
      0.73199999999999998000	      0.83831040970376991000	      0.99123001431121960000	     -0.18503558350429064000	      3.89404004343391060000	     -0.20919482803034106000	      1.55400739137728890000	    -30.26381421911379000000	      2.48376669882275000000	     -1.80297407748214990000	    -38.99171669338723200000	    -22.68010811432083400000	      0.00000000000000001555	      0.00000000000000011637	     26.72810549626961000000	      3.26736579044377610000	     -3.70380304876501840000	    -16.05609399158599300000	      2.26907975776077200000	      0.00000000000000041905	     -0.00000000000000052443	     -9.87087859056631170000	      1.28096215437170580000	     14.25931864988959700000	    -12.19742868163170600000	    -36.12772014758090900000	     -1.49624294359896480000	    104.44627373528954000000	    120.11135634510630000000	     -0.00000000000000082046	     -0.00000000000000076889	    -35.18456847448703700000	    -32.15751690133161100000	      9.20393080705981070000	     77.51047311960606100000	    107.77029729061236000000	      0.00000000000000011476	     -0.00000000000000027859
      0.73299999999999998000	      0.83838246344042133000	      0.99093684797485126000	     -0.18508100946926148000	      3.91710758512866790000	     -0.21328242105192255000	      1.54418533259599040000	    -30.10400595947052000000	      2.44857525398114180000	     -1.86029733459511410000	    -39.58200824495433800000	    -22.64310762952357300000	      0.00000000000000002864	      0.00000000000000008152	     26.72601657326134700000	      3.27024283998921030000	     -3.63730744171818190000	    -16.06033711613201500000	      2.24373039532614320000	      0.00000000000000043812	     -0.00000000000000054247	     -9.90215910857283530000	      1.27037660769155950000	     14.27357805872406600000	    -12.19672574272014700000	    -36.07589924952609600000	     -1.41946857020810690000	    104.21759868432618000000	    120.09960274280392000000	     -0.00000000000000084834	     -0.00000000000000082776	    -35.10119513502776600000	    -32.21011589121464900000	      9.17026023737176390000	     77.59017797109261500000	    107.83549470551080000000	      0.00000000000000011926	     -0.00000000000000029372
      0.73399999999999999000	      0.83845451717707276000	      0.99064368163848304000	     -0.18512643543423235000	      3.94017512682342510000	     -0.21737001407350404000	      1.53436327381469220000	    -29.94419769982724600000	      2.41338380913953320000	     -1.91762059170807840000	    -40.17229979652143600000	    -22.60610714472631200000	      0.00000000000000004174	      0.00000000000000004667	     26.72392765025308500000	      3.27311988953464450000	     -3.57081183467134490000	    -16.06458024067804000000	      2.21838103289151480000	      0.00000000000000045719	     -0.00000000000000056052	     -9.93343962657935900000	      1.25979106101141290000	     14.28783746755853400000	    -12.19602280380859000000	    -36.02407835147128200000	     -1.34269419681724920000	    103.98892363336282000000	    120.08784914050155000000	     -0.00000000000000087621	     -0.00000000000000088664	    -35.01782179556849400000	    -32.26271488109769300000	      9.13658966768371710000	     77.66988282257916900000	    107.90069212040925000000	      0.00000000000000012377	     -0.00000000000000030886
      0.73499999999999999000	      0.83852023522938268000	      0.99033161690623228000	     -0.18516554014475811000	      3.96414825418864060000	     -0.21911136106406309000	      1.51965482279475260000	    -29.78000433255422100000	      2.37224675931674070000	     -1.97110380109975950000	    -40.76691283133966700000	    -22.57170050967423700000	      0.00000000000000006206	     -0.00000000000000001694	     26.72473635486460400000	      3.27536750151509180000	     -3.51214641217980630000	    -16.09054849619299400000	      2.19826281838500750000	      0.00000000000000048884	     -0.00000000000000058193	     -9.96642523911701340000	      1.24565435461536130000	     14.30527300450200600000	    -12.19574650910624000000	    -35.97149049782637300000	     -1.26515688095710230000	    103.75041813874358000000	    120.07535963816871000000	     -0.00000000000000090135	     -0.00000000000000094256	    -34.92769370631632600000	    -32.31494000930803200000	      9.10689219734208240000	     77.74743768451163800000	    107.96455610084756000000	      0.00000000000000012779	     -0.00000000000000032170
      0.73599999999999999000	      0.83858541974965661000	      0.99001796072796089000	     -0.18520411253839864000	      3.98819764150314130000	     -0.22065512917371352000	      1.50453488555494250000	    -29.61544169255928000000	      2.33060902629066290000	     -2.02426363761350060000	    -41.36188978103014300000	    -22.53751230437041600000	      0.00000000000000008300	     -0.00000000000000008296	     26.72578907055374500000	      3.27756210815507300000	     -3.45414037454445390000	    -16.11834623890054600000	      2.17858512219577790000	      0.00000000000000052155	     -0.00000000000000060363	     -9.99955443875714960000	      1.23121860278531890000	     14.32297600522766400000	    -12.19550614238598700000	    -35.91883805836003800000	     -1.18755531722299580000	    103.51108481616828000000	    120.06280816522300000000	     -0.00000000000000092625	     -0.00000000000000099823	    -34.83699679525807400000	    -32.36713365438747300000	      9.07752930424095080000	     77.82481149444682000000	    108.02830779191602000000	      0.00000000000000013177	     -0.00000000000000033434
      0.73699999999999999000	      0.83864738958479512000	      0.98969566072945903000	     -0.18524096532044945000	      4.01272781076800910000	     -0.22177744129860327000	      1.48806700296633680000	    -29.44909392306876900000	      2.28744725655637950000	     -2.07581433207059620000	    -41.95817100631170900000	    -22.50493022075398400000	      0.00000000000000010717	     -0.00000000000000015519	     26.72825189890748700000	      3.27928107197041600000	     -3.39801367605364570000	    -16.15620509912391300000	      2.16115758124488360000	      0.00000000000000056143	     -0.00000000000000063625	    -10.03355076988720100000	      1.21601512751468890000	     14.34126933180664100000	    -12.19522327113884000000	    -35.86598776179889800000	     -1.10945701551228180000	    103.26723089954743000000	    120.04985742385614000000	     -0.00000000000000095056	     -0.00000000000000105067	    -34.74323577102036600000	    -32.41896598246674400000	      9.04987735564141360000	     77.90115120401573300000	    108.09155522978804000000	      0.00000000000000013527	     -0.00000000000000034761
      0.73799999999999999000	      0.83870496232012481000	      0.98936153756984502000	     -0.18527546598915987000	      4.03791560158300910000	     -0.22232327891607942000	      1.46975537830485760000	    -29.28030442375630900000	      2.24220088405831720000	     -2.12516401525248040000	    -42.55623624144504900000	    -22.47454501710144800000	      0.00000000000000013576	     -0.00000000000000023589	     26.73264350282289900000	      3.28034944361729370000	     -3.34445756890994960000	    -16.20782572326493600000	      2.14680784006318780000	      0.00000000000000061112	     -0.00000000000000068381	    -10.06873317789500200000	      1.19976154734996410000	     14.36037011590861000000	    -12.19488226149268700000	    -35.81286683301189600000	     -1.03067926733329430000	    103.01719363918524000000	    120.03636055650047000000	     -0.00000000000000097405	     -0.00000000000000109869	    -34.64528360180035800000	    -32.47030409514223200000	      9.02456566539489910000	     77.97607645390007700000	    108.15411294174910000000	      0.00000000000000013811	     -0.00000000000000036173
